<svg xmlns="http://www.w3.org/2000/svg" viewBox="0 0 720 420" width="720" height="420" role="img" aria-labelledby="title desc" font-family="Pretendard, 'Apple SD Gothic Neo', 'Noto Sans KR', 'Noto Sans CJK KR', 'Malgun Gothic', system-ui, -apple-system, 'Segoe UI', sans-serif"><title id="title">입력 모양별 비교 횟수 (n = 10,000)</title><desc id="desc">입력 모양별 비교 횟수 (n = 10,000). mergeSort: 무작위 비교 120,461회, 정렬됨 비교 69,008회, 역순 비교 64,608회, 중복많음 비교 115,560회; quickSort: 무작위 비교 162,030회, 정렬됨 비교 155,798회, 역순 비교 159,885회, 중복많음 비교 6,285,530회; cocktailSort: 무작위 비교 37,696,680회, 정렬됨 비교 9,999회, 역순 비교 49,995,000회, 중복많음 비교 37,602,269회</desc><style>.surface{fill:#fcfcfb}.ink{fill:#0b0b0b}.ink2{fill:#52514e}.muted{fill:#898781}.grid{stroke:#e1e0d9}.axis{stroke:#c3c2b7}.ref{stroke:#52514e}.ring{stroke:#fcfcfb}.s0{stroke:#2a78d6} .f0{fill:#2a78d6}.s1{stroke:#eb6834} .f1{fill:#eb6834}.s2{stroke:#1baf7a} .f2{fill:#1baf7a}.s3{stroke:#898781} .f3{fill:#898781}@media (prefers-color-scheme: dark){.surface{fill:#1a1a19}.ink{fill:#ffffff}.ink2{fill:#c3c2b7}.muted{fill:#898781}.grid{stroke:#2c2c2a}.axis{stroke:#383835}.ref{stroke:#c3c2b7}.ring{stroke:#1a1a19}.s0{stroke:#3987e5} .f0{fill:#3987e5}.s1{stroke:#d95926} .f1{fill:#d95926}.s2{stroke:#199e70} .f2{fill:#199e70}.s3{stroke:#898781} .f3{fill:#898781}}</style><rect class="surface" width="720" height="420" rx="10"/><text class="ink" x="20.0" y="28.0" font-size="15" text-anchor="start" font-weight="600">입력 모양별 비교 횟수 (n = 10,000)</text><text class="ink2" x="20.0" y="48.0" font-size="12" text-anchor="start">로그 축: 눈금 한 칸이 10배다.</text><circle class="f0 ring" stroke-width="2" cx="25.0" cy="72.0" r="4.0"/><text class="ink2" x="34.0" y="76.0" font-size="12" text-anchor="start">mergeSort</text><rect class="f1 ring" stroke-width="2" x="116.0" y="68.4" width="7.2" height="7.2" rx="1"/><text class="ink2" x="128.6" y="76.0" font-size="12" text-anchor="start">quickSort</text><path class="f2 ring" stroke-width="2" d="M214.3,67.0 L219.3,72.0 L214.3,77.0 L209.3,72.0 Z"/><text class="ink2" x="223.3" y="76.0" font-size="12" text-anchor="start">cocktailSort</text><text class="muted" x="20.0" y="100.0" font-size="11" text-anchor="start">비교 횟수</text><line class="grid" x1="64.0" x2="700.0" y1="380.0" y2="380.0" stroke-width="1" shape-rendering="crispEdges"/><text class="muted" x="56.0" y="384.0" font-size="11" text-anchor="end">1K</text><line class="grid" x1="64.0" x2="700.0" y1="327.2" y2="327.2" stroke-width="1" shape-rendering="crispEdges"/><text class="muted" x="56.0" y="331.2" font-size="11" text-anchor="end">10K</text><line class="grid" x1="64.0" x2="700.0" y1="274.4" y2="274.4" stroke-width="1" shape-rendering="crispEdges"/><text class="muted" x="56.0" y="278.4" font-size="11" text-anchor="end">100K</text><line class="grid" x1="64.0" x2="700.0" y1="221.6" y2="221.6" stroke-width="1" shape-rendering="crispEdges"/><text class="muted" x="56.0" y="225.6" font-size="11" text-anchor="end">1M</text><line class="grid" x1="64.0" x2="700.0" y1="168.8" y2="168.8" stroke-width="1" shape-rendering="crispEdges"/><text class="muted" x="56.0" y="172.8" font-size="11" text-anchor="end">10M</text><line class="grid" x1="64.0" x2="700.0" y1="116.0" y2="116.0" stroke-width="1" shape-rendering="crispEdges"/><text class="muted" x="56.0" y="120.0" font-size="11" text-anchor="end">100M</text><line class="axis" x1="64.0" x2="700.0" y1="380.0" y2="380.0" stroke-width="1" shape-rendering="crispEdges"/><text class="muted" x="143.5" y="398.0" font-size="11" text-anchor="middle">무작위</text><g><title>mergeSort · 무작위 · 비교 120,461회</title><circle class="f0 ring" stroke-width="2" cx="121.5" cy="270.1" r="5.0"/><circle cx="121.5" cy="270.1" r="12" fill="transparent"/></g><g><title>quickSort · 무작위 · 비교 162,030회</title><rect class="f1 ring" stroke-width="2" x="139.0" y="258.8" width="9.0" height="9.0" rx="1"/><circle cx="143.5" cy="263.3" r="12" fill="transparent"/></g><g><title>cocktailSort · 무작위 · 비교 37,696,680회</title><path class="f2 ring" stroke-width="2" d="M165.5,132.1 L171.8,138.4 L165.5,144.6 L159.2,138.4 Z"/><circle cx="165.5" cy="138.4" r="12" fill="transparent"/></g><text class="muted" x="302.5" y="398.0" font-size="11" text-anchor="middle">정렬됨</text><g><title>mergeSort · 정렬됨 · 비교 69,008회</title><circle class="f0 ring" stroke-width="2" cx="280.5" cy="282.9" r="5.0"/><circle cx="280.5" cy="282.9" r="12" fill="transparent"/></g><g><title>quickSort · 정렬됨 · 비교 155,798회</title><rect class="f1 ring" stroke-width="2" x="298.0" y="259.7" width="9.0" height="9.0" rx="1"/><circle cx="302.5" cy="264.2" r="12" fill="transparent"/></g><g><title>cocktailSort · 정렬됨 · 비교 9,999회</title><path class="f2 ring" stroke-width="2" d="M324.5,321.0 L330.8,327.2 L324.5,333.5 L318.2,327.2 Z"/><circle cx="324.5" cy="327.2" r="12" fill="transparent"/></g><text class="muted" x="461.5" y="398.0" font-size="11" text-anchor="middle">역순</text><g><title>mergeSort · 역순 · 비교 64,608회</title><circle class="f0 ring" stroke-width="2" cx="439.5" cy="284.4" r="5.0"/><circle cx="439.5" cy="284.4" r="12" fill="transparent"/></g><g><title>quickSort · 역순 · 비교 159,885회</title><rect class="f1 ring" stroke-width="2" x="457.0" y="259.1" width="9.0" height="9.0" rx="1"/><circle cx="461.5" cy="263.6" r="12" fill="transparent"/></g><g><title>cocktailSort · 역순 · 비교 49,995,000회</title><path class="f2 ring" stroke-width="2" d="M483.5,125.6 L489.8,131.9 L483.5,138.1 L477.2,131.9 Z"/><circle cx="483.5" cy="131.9" r="12" fill="transparent"/></g><text class="ink" x="492.5" y="135.9" font-size="11" text-anchor="start">49,995,000회</text><text class="muted" x="620.5" y="398.0" font-size="11" text-anchor="middle">중복많음</text><g><title>mergeSort · 중복많음 · 비교 115,560회</title><circle class="f0 ring" stroke-width="2" cx="598.5" cy="271.1" r="5.0"/><circle cx="598.5" cy="271.1" r="12" fill="transparent"/></g><g><title>quickSort · 중복많음 · 비교 6,285,530회</title><rect class="f1 ring" stroke-width="2" x="616.0" y="174.9" width="9.0" height="9.0" rx="1"/><circle cx="620.5" cy="179.4" r="12" fill="transparent"/></g><g><title>cocktailSort · 중복많음 · 비교 37,602,269회</title><path class="f2 ring" stroke-width="2" d="M642.5,132.2 L648.8,138.4 L642.5,144.7 L636.2,138.4 Z"/><circle cx="642.5" cy="138.4" r="12" fill="transparent"/></g></svg>
